<svg xmlns="http://www.w3.org/2000/svg" viewBox="0 0 900 560" role="img" aria-label="Lua Active">
  <defs>
    <linearGradient id="bg" x1="0" x2="1" y1="0" y2="1"><stop stop-color="#05060a"/><stop offset="1" stop-color="#111827"/></linearGradient>
    <linearGradient id="accent" x1="0" x2="1" y1="0" y2="1"><stop stop-color="#e879f9"/><stop offset="1" stop-color="#8b5cf6"/></linearGradient>
    <filter id="soft"><feGaussianBlur stdDeviation="34"/></filter>
  </defs>
  <rect width="900" height="560" fill="url(#bg)"/>
  <circle cx="710" cy="110" r="150" fill="#e879f9" opacity=".28" filter="url(#soft)"/>
  <circle cx="180" cy="430" r="170" fill="#8b5cf6" opacity=".24" filter="url(#soft)"/>
  <rect x="70" y="58" width="760" height="444" rx="34" fill="rgba(255,255,255,.055)" stroke="rgba(255,255,255,.18)"/>
  <rect x="104" y="94" width="692" height="52" rx="18" fill="rgba(255,255,255,.08)"/>
  <circle cx="134" cy="120" r="8" fill="#e879f9"/><circle cx="162" cy="120" r="8" fill="#8b5cf6"/><circle cx="190" cy="120" r="8" fill="#d9dee7"/>
  <text x="112" y="215" fill="#f5f7fb" font-family="Arial, sans-serif" font-size="56" font-weight="800">Lua Active</text>
  <text x="114" y="260" fill="#a8b0c4" font-family="Arial, sans-serif" font-size="24">Sistema web moderno</text>
  <rect x="112" y="302" width="180" height="46" rx="23" fill="url(#accent)"/>
  <text x="140" y="333" fill="#05060a" font-family="Arial, sans-serif" font-size="20" font-weight="800">APP</text>
  <rect x="112" y="386" width="188" height="72" rx="18" fill="rgba(255,255,255,.075)" stroke="rgba(255,255,255,.16)"/>
  <rect x="330" y="386" width="188" height="72" rx="18" fill="rgba(255,255,255,.075)" stroke="rgba(255,255,255,.16)"/>
  <rect x="548" y="386" width="188" height="72" rx="18" fill="rgba(255,255,255,.075)" stroke="rgba(255,255,255,.16)"/>
  <path d="M620 186c50 0 90 40 90 90s-40 90-90 90-90-40-90-90 40-90 90-90Z" fill="none" stroke="url(#accent)" stroke-width="18" opacity=".9"/>
  <path d="M620 224v104M568 276h104" stroke="#f5f7fb" stroke-width="14" stroke-linecap="round" opacity=".76"/>
</svg>


